<mxfile host="app.diagrams.net" modified="2022-10-25T11:53:55.761Z" agent="5.0 (X11; Linux x86_64) AppleWebKit/537.36 (KHTML, like Gecko) Chrome/106.0.0.0 Safari/537.36" etag="EuSlU2NpxYpkx6mw64Pi" version="20.5.1" type="github">
  <diagram id="252d-Q3R2h-Utwpklu9Z" name="PÃ¡gina-1">
    <mxGraphModel dx="3022" dy="734" grid="1" gridSize="10" guides="1" tooltips="1" connect="1" arrows="1" fold="1" page="1" pageScale="1" pageWidth="1600" pageHeight="2500" math="0" shadow="0">
      <root>
        <mxCell id="0" />
        <mxCell id="1" parent="0" />
        <mxCell id="vpJVgtOvuzQgXyWUIgB5-1" value="&lt;font style=&quot;font-size: 18px;&quot;&gt;Projeto Google Workspace Migrate&amp;nbsp;&lt;br&gt;Infraestrutura: Google Compute Engine&lt;br&gt;OS: Windows Server 2019 - Enterprise&lt;br&gt;Custo: R$ 12,315.86&lt;br&gt;Tempo estimado: 72h&lt;br&gt;&lt;/font&gt;" style="text;html=1;strokeColor=none;fillColor=none;align=center;verticalAlign=middle;whiteSpace=wrap;rounded=0;" parent="1" vertex="1">
          <mxGeometry x="-1570" y="80" width="380" height="30" as="geometry" />
        </mxCell>
      </root>
    </mxGraphModel>
  </diagram>
</mxfile>
